<svg version="1.1" id="Layer_1" xmlns="http://www.w3.org/2000/svg" xmlns:xlink="http://www.w3.org/1999/xlink" x="0px" y="0px"
	 width="100%" viewBox="0 0 464 426" enable-background="new 0 0 464 426" xml:space="preserve">
<path fill="#FFFFFF" opacity="1.000000" stroke="none" 
	d="
M272.000000,427.000000 
	C181.358643,427.000000 91.217285,427.000000 1.037962,427.000000 
	C1.037962,285.065186 1.037962,143.130325 1.037962,1.097746 
	C155.558044,1.097746 310.116150,1.097746 464.837158,1.097746 
	C464.837158,142.999847 464.837158,284.999908 464.837158,427.000000 
	C400.796967,427.000000 336.648468,427.000000 272.000000,427.000000 
M429.742493,282.176941 
	C435.176422,257.987671 433.751038,234.171127 425.019409,211.004761 
	C402.594086,151.506668 340.614777,118.890388 278.611908,133.707001 
	C212.444687,149.518738 171.735886,216.843964 187.702560,284.055084 
	C201.737701,343.135345 258.575775,383.780884 319.230682,378.112274 
	C373.255890,373.063263 417.818756,334.619354 429.742493,282.176941 
M234.609955,134.126007 
	C236.980240,130.545334 233.186996,131.262695 232.059372,130.966995 
	C208.661133,124.831421 185.157166,123.996620 161.506149,129.673981 
	C132.712219,136.585892 109.656136,152.545532 90.734032,174.775192 
	C64.265343,205.870575 54.791374,241.605698 64.478859,281.387695 
	C77.987892,336.862976 131.279160,381.722382 191.303848,380.276550 
	C204.296768,379.963593 216.978790,378.359070 229.872467,374.640381 
	C229.112946,373.760162 228.766281,373.195526 228.276611,372.814758 
	C216.974335,364.026306 205.683823,355.222076 194.302109,346.537445 
	C193.076263,345.602081 191.342636,345.075653 189.779358,344.879761 
	C177.452774,343.334991 165.637268,340.130310 154.704346,334.129211 
	C122.509964,316.457703 103.197601,280.365570 108.798767,241.802383 
	C114.397911,203.253128 149.119049,169.988068 188.034210,166.767715 
	C192.651398,166.385635 198.215973,166.009460 201.526596,163.361572 
	C212.822739,154.326675 223.307755,144.277649 234.609955,134.126007 
M268.875610,92.566681 
	C281.352081,110.968109 305.019440,116.216751 322.797485,104.524811 
	C341.296082,92.358986 346.946869,68.438393 335.503693,50.737541 
	C323.419891,32.045692 299.814972,26.104622 281.864410,37.237183 
	C262.553040,49.213699 256.804413,72.667625 268.875610,92.566681 
M149.147614,58.850109 
	C148.460602,62.598553 147.281128,66.331947 147.166061,70.097862 
	C146.390320,95.486397 169.755600,114.875412 194.821960,109.826988 
	C215.292984,105.704063 229.758118,84.069313 225.420502,64.062309 
	C221.576340,46.331360 207.540878,33.278629 190.964340,32.018742 
	C171.842285,30.565376 156.413513,40.253353 149.147614,58.850109 
z"/>
<path fill="#3773B8" opacity="1.000000" stroke="none" 
	d="
M429.626709,282.575836 
	C417.818756,334.619354 373.255890,373.063263 319.230682,378.112274 
	C258.575775,383.780884 201.737701,343.135345 187.702560,284.055084 
	C171.735886,216.843964 212.444687,149.518738 278.611908,133.707001 
	C340.614777,118.890388 402.594086,151.506668 425.019409,211.004761 
	C433.751038,234.171127 435.176422,257.987671 429.626709,282.575836 
M383.642578,196.883438 
	C358.797241,166.684433 327.148346,154.739258 288.643860,161.976501 
	C239.699615,171.175980 205.288162,222.714432 215.323288,271.394165 
	C224.074478,313.845581 255.235382,343.336182 298.214447,348.147675 
	C334.495148,352.209290 364.116943,338.669922 385.350861,309.232178 
	C410.114960,274.900299 409.049500,232.684387 383.642578,196.883438 
z"/>
<path fill="#6ABAE7" opacity="1.000000" stroke="none" 
	d="
M234.356140,134.370819 
	C223.307755,144.277649 212.822739,154.326675 201.526596,163.361572 
	C198.215973,166.009460 192.651398,166.385635 188.034210,166.767715 
	C149.119049,169.988068 114.397911,203.253128 108.798767,241.802383 
	C103.197601,280.365570 122.509964,316.457703 154.704346,334.129211 
	C165.637268,340.130310 177.452774,343.334991 189.779358,344.879761 
	C191.342636,345.075653 193.076263,345.602081 194.302109,346.537445 
	C205.683823,355.222076 216.974335,364.026306 228.276611,372.814758 
	C228.766281,373.195526 229.112946,373.760162 229.872467,374.640381 
	C216.978790,378.359070 204.296768,379.963593 191.303848,380.276550 
	C131.279160,381.722382 77.987892,336.862976 64.478859,281.387695 
	C54.791374,241.605698 64.265343,205.870575 90.734032,174.775192 
	C109.656136,152.545532 132.712219,136.585892 161.506149,129.673981 
	C185.157166,123.996620 208.661133,124.831421 232.059372,130.966995 
	C233.186996,131.262695 236.980240,130.545334 234.356140,134.370819 
z"/>
<path fill="#3673B7" opacity="1.000000" stroke="none" 
	d="
M268.661530,92.272102 
	C256.804413,72.667625 262.553040,49.213699 281.864410,37.237183 
	C299.814972,26.104622 323.419891,32.045692 335.503693,50.737541 
	C346.946869,68.438393 341.296082,92.358986 322.797485,104.524811 
	C305.019440,116.216751 281.352081,110.968109 268.661530,92.272102 
z"/>
<path fill="#6ABAE7" opacity="1.000000" stroke="none" 
	d="
M149.284790,58.476990 
	C156.413513,40.253353 171.842285,30.565376 190.964340,32.018742 
	C207.540878,33.278629 221.576340,46.331360 225.420502,64.062309 
	C229.758118,84.069313 215.292984,105.704063 194.821960,109.826988 
	C169.755600,114.875412 146.390320,95.486397 147.166061,70.097862 
	C147.281128,66.331947 148.460602,62.598553 149.284790,58.476990 
z"/>
<path fill="#FEFFFF" opacity="1.000000" stroke="none" 
	d="
M383.865173,197.164032 
	C409.049500,232.684387 410.114960,274.900299 385.350861,309.232178 
	C364.116943,338.669922 334.495148,352.209290 298.214447,348.147675 
	C255.235382,343.336182 224.074478,313.845581 215.323288,271.394165 
	C205.288162,222.714432 239.699615,171.175980 288.643860,161.976501 
	C327.148346,154.739258 358.797241,166.684433 383.865173,197.164032 
M273.868439,327.623901 
	C275.632538,328.774963 277.396667,329.925995 279.112457,331.045532 
	C317.261566,283.335052 312.832062,219.333817 283.964081,181.400604 
	C275.172150,187.837189 266.372803,194.279190 257.244293,200.962158 
	C268.208954,218.339508 274.705414,236.534607 272.457916,256.971283 
	C270.187805,277.613525 260.077393,294.136932 244.471512,308.033020 
	C254.481033,314.695404 263.880829,320.951935 273.868439,327.623901 
z"/>
<path fill="#6ABBE7" opacity="1.000000" stroke="none" 
	d="
M273.574524,327.416199 
	C263.880829,320.951935 254.481033,314.695404 244.471512,308.033020 
	C260.077393,294.136932 270.187805,277.613525 272.457916,256.971283 
	C274.705414,236.534607 268.208954,218.339508 257.244293,200.962158 
	C266.372803,194.279190 275.172150,187.837189 283.964081,181.400604 
	C312.832062,219.333817 317.261566,283.335052 279.112457,331.045532 
	C277.396667,329.925995 275.632538,328.774963 273.574524,327.416199 
z"/>
</svg>